<mxfile host="app.diagrams.net" agent="Mozilla/5.0 (Windows NT 10.0; Win64; x64) AppleWebKit/537.36 (KHTML, like Gecko) Chrome/139.0.0.0 Safari/537.36" version="28.1.0" pages="3">
  <diagram id="main" name="Main">
    <mxGraphModel dx="6353" dy="3963" grid="1" gridSize="10" guides="1" tooltips="1" connect="1" arrows="1" fold="1" page="1" pageScale="1" pageWidth="1600" pageHeight="1200" math="0" shadow="0">
      <root>
        <mxCell id="0" />
        <mxCell id="1" parent="0" />
        <mxCell id="wjFaACwu9RYEKZzswBMA-48" value="" style="edgeStyle=orthogonalEdgeStyle;rounded=0;orthogonalLoop=1;jettySize=auto;html=1;" edge="1" parent="1" source="wjFaACwu9RYEKZzswBMA-46" target="wjFaACwu9RYEKZzswBMA-47">
          <mxGeometry relative="1" as="geometry" />
        </mxCell>
        <mxCell id="wjFaACwu9RYEKZzswBMA-46" value="&lt;font data-font-src=&quot;https://fonts.googleapis.com/css?family=Sarabun&quot; face=&quot;Sarabun&quot;&gt;เริ่มต้น&lt;/font&gt;" style="ellipse;whiteSpace=wrap;html=1;" vertex="1" parent="1">
          <mxGeometry x="-210" y="-300" width="130" height="30" as="geometry" />
        </mxCell>
        <mxCell id="wjFaACwu9RYEKZzswBMA-50" value="" style="edgeStyle=orthogonalEdgeStyle;rounded=0;orthogonalLoop=1;jettySize=auto;html=1;" edge="1" parent="1" source="wjFaACwu9RYEKZzswBMA-47" target="wjFaACwu9RYEKZzswBMA-49">
          <mxGeometry relative="1" as="geometry" />
        </mxCell>
        <mxCell id="wjFaACwu9RYEKZzswBMA-47" value="&lt;div&gt;&amp;nbsp; &amp;nbsp; int choice&lt;/div&gt;&lt;div&gt;&amp;nbsp; &amp;nbsp; char more = &#39;Y&#39;&lt;/div&gt;&lt;div&gt;&amp;nbsp; &amp;nbsp; int total = 0&lt;/div&gt;&lt;div&gt;&amp;nbsp; &amp;nbsp; int count = 0&lt;/div&gt;&lt;div&gt;&lt;br&gt;&lt;/div&gt;&lt;div&gt;&amp;nbsp; &amp;nbsp; char items[100][50]&lt;/div&gt;&lt;div&gt;&amp;nbsp; &amp;nbsp; int prices[100]&lt;/div&gt;" style="rounded=1;whiteSpace=wrap;html=1;" vertex="1" parent="1">
          <mxGeometry x="-230" y="-180" width="170" height="100" as="geometry" />
        </mxCell>
        <mxCell id="wjFaACwu9RYEKZzswBMA-52" value="" style="edgeStyle=orthogonalEdgeStyle;rounded=0;orthogonalLoop=1;jettySize=auto;html=1;" edge="1" parent="1" source="wjFaACwu9RYEKZzswBMA-49" target="wjFaACwu9RYEKZzswBMA-51">
          <mxGeometry relative="1" as="geometry" />
        </mxCell>
        <mxCell id="wjFaACwu9RYEKZzswBMA-49" value="เรียกฟังก์ชัน showMenu()" style="rounded=1;whiteSpace=wrap;html=1;" vertex="1" parent="1">
          <mxGeometry x="-225" y="30" width="160" height="50" as="geometry" />
        </mxCell>
        <mxCell id="wjFaACwu9RYEKZzswBMA-51" value="more == &#39;Y&#39; หรือ &#39;y&#39; ?" style="rhombus;whiteSpace=wrap;html=1;" vertex="1" parent="1">
          <mxGeometry x="-240" y="200" width="190" height="100" as="geometry" />
        </mxCell>
        <mxCell id="wjFaACwu9RYEKZzswBMA-53" value="ใช่" style="entryX=0;entryY=0.5;entryDx=0;entryDy=0;exitX=1;exitY=0.5;exitDx=0;exitDy=0;" edge="1" parent="1" source="wjFaACwu9RYEKZzswBMA-51" target="wjFaACwu9RYEKZzswBMA-71">
          <mxGeometry relative="1" as="geometry">
            <mxPoint x="59.99999999989586" y="249.47" as="sourcePoint" />
            <mxPoint x="132" y="249.47" as="targetPoint" />
          </mxGeometry>
        </mxCell>
        <mxCell id="wjFaACwu9RYEKZzswBMA-62" style="edgeStyle=orthogonalEdgeStyle;rounded=0;orthogonalLoop=1;jettySize=auto;html=1;entryX=0.5;entryY=0;entryDx=0;entryDy=0;" edge="1" parent="1" source="wjFaACwu9RYEKZzswBMA-54" target="wjFaACwu9RYEKZzswBMA-55">
          <mxGeometry relative="1" as="geometry" />
        </mxCell>
        <mxCell id="wjFaACwu9RYEKZzswBMA-54" value="เลือกสินค้าตามหมายเลข scanf(&quot;%d&quot;, &amp;amp;choice)" style="shape=parallelogram;perimeter=parallelogramPerimeter;whiteSpace=wrap;html=1;" vertex="1" parent="1">
          <mxGeometry x="230" y="215" width="320" height="70" as="geometry" />
        </mxCell>
        <mxCell id="wjFaACwu9RYEKZzswBMA-55" value="เป็นตัวเลขหรือไม่" style="rhombus;whiteSpace=wrap;html=1;" vertex="1" parent="1">
          <mxGeometry x="630" y="540" width="170" height="100" as="geometry" />
        </mxCell>
        <mxCell id="wjFaACwu9RYEKZzswBMA-63" style="edgeStyle=orthogonalEdgeStyle;rounded=0;orthogonalLoop=1;jettySize=auto;html=1;" edge="1" parent="1" source="wjFaACwu9RYEKZzswBMA-57" target="wjFaACwu9RYEKZzswBMA-54">
          <mxGeometry relative="1" as="geometry" />
        </mxCell>
        <mxCell id="wjFaACwu9RYEKZzswBMA-57" value="&amp;nbsp;&quot;กรุณาใส่ตัวเลขเท่านั้น!&quot;)" style="rounded=1;whiteSpace=wrap;html=1;" vertex="1" parent="1">
          <mxGeometry x="260" y="550" width="260" height="80" as="geometry" />
        </mxCell>
        <mxCell id="wjFaACwu9RYEKZzswBMA-59" value="ไม่ใช่" style="exitX=0;exitY=0.5;exitDx=0;exitDy=0;entryX=1;entryY=0.5;entryDx=0;entryDy=0;" edge="1" parent="1" source="wjFaACwu9RYEKZzswBMA-55" target="wjFaACwu9RYEKZzswBMA-57">
          <mxGeometry relative="1" as="geometry">
            <mxPoint x="584" y="450" as="sourcePoint" />
            <mxPoint x="340" y="746" as="targetPoint" />
          </mxGeometry>
        </mxCell>
        <mxCell id="wjFaACwu9RYEKZzswBMA-64" value="choice อยู่ในช่วง 1 ถึง 7 หรือไม่?" style="rhombus;whiteSpace=wrap;html=1;" vertex="1" parent="1">
          <mxGeometry x="615" y="710" width="200" height="100" as="geometry" />
        </mxCell>
        <mxCell id="wjFaACwu9RYEKZzswBMA-66" value="ไม่ใช่" style="exitX=0.5;exitY=1;exitDx=0;exitDy=0;" edge="1" parent="1" source="wjFaACwu9RYEKZzswBMA-64">
          <mxGeometry relative="1" as="geometry">
            <mxPoint x="732" y="850" as="sourcePoint" />
            <mxPoint x="715" y="950" as="targetPoint" />
          </mxGeometry>
        </mxCell>
        <mxCell id="wjFaACwu9RYEKZzswBMA-67" value="ใช่" style="entryX=0.5;entryY=0;entryDx=0;entryDy=0;exitX=0.5;exitY=1;exitDx=0;exitDy=0;" edge="1" parent="1" source="wjFaACwu9RYEKZzswBMA-55" target="wjFaACwu9RYEKZzswBMA-64">
          <mxGeometry relative="1" as="geometry">
            <mxPoint x="833" y="308" as="sourcePoint" />
            <mxPoint x="837" y="391" as="targetPoint" />
          </mxGeometry>
        </mxCell>
        <mxCell id="wjFaACwu9RYEKZzswBMA-69" style="edgeStyle=orthogonalEdgeStyle;rounded=0;orthogonalLoop=1;jettySize=auto;html=1;" edge="1" parent="1" source="wjFaACwu9RYEKZzswBMA-85">
          <mxGeometry relative="1" as="geometry">
            <mxPoint x="180" y="250" as="targetPoint" />
          </mxGeometry>
        </mxCell>
        <mxCell id="wjFaACwu9RYEKZzswBMA-68" value="&quot;ไม่มีสินค้านี้ กรุณาเลือกใหม่&quot;" style="rounded=1;whiteSpace=wrap;html=1;" vertex="1" parent="1">
          <mxGeometry x="585" y="950" width="260" height="70" as="geometry" />
        </mxCell>
        <mxCell id="wjFaACwu9RYEKZzswBMA-73" value="" style="edgeStyle=orthogonalEdgeStyle;rounded=0;orthogonalLoop=1;jettySize=auto;html=1;" edge="1" parent="1" source="wjFaACwu9RYEKZzswBMA-71" target="wjFaACwu9RYEKZzswBMA-54">
          <mxGeometry relative="1" as="geometry" />
        </mxCell>
        <mxCell id="wjFaACwu9RYEKZzswBMA-71" value="" style="ellipse;whiteSpace=wrap;html=1;aspect=fixed;" vertex="1" parent="1">
          <mxGeometry x="170" y="240" width="20" height="20" as="geometry" />
        </mxCell>
        <mxCell id="wjFaACwu9RYEKZzswBMA-74" value="ใช่" style="exitX=1;exitY=0.5;exitDx=0;exitDy=0;entryX=0.013;entryY=0.431;entryDx=0;entryDy=0;entryPerimeter=0;" edge="1" parent="1" source="wjFaACwu9RYEKZzswBMA-64" target="wjFaACwu9RYEKZzswBMA-75">
          <mxGeometry relative="1" as="geometry">
            <mxPoint x="870" y="792" as="sourcePoint" />
            <mxPoint x="982" y="760" as="targetPoint" />
          </mxGeometry>
        </mxCell>
        <mxCell id="wjFaACwu9RYEKZzswBMA-77" value="" style="edgeStyle=orthogonalEdgeStyle;rounded=0;orthogonalLoop=1;jettySize=auto;html=1;" edge="1" parent="1" source="wjFaACwu9RYEKZzswBMA-75" target="wjFaACwu9RYEKZzswBMA-76">
          <mxGeometry relative="1" as="geometry" />
        </mxCell>
        <mxCell id="wjFaACwu9RYEKZzswBMA-75" value="switch(choice):&amp;nbsp; total += ..., บันทึก items[count],&quot;ชื่อ&quot;&amp;nbsp; &amp;nbsp;&lt;div&gt;&amp;nbsp;prices[count] = ... , count++&lt;/div&gt;" style="rounded=1;whiteSpace=wrap;html=1;" vertex="1" parent="1">
          <mxGeometry x="950" y="720" width="330" height="90" as="geometry" />
        </mxCell>
        <mxCell id="wjFaACwu9RYEKZzswBMA-79" value="" style="edgeStyle=orthogonalEdgeStyle;rounded=0;orthogonalLoop=1;jettySize=auto;html=1;" edge="1" parent="1" source="wjFaACwu9RYEKZzswBMA-76" target="wjFaACwu9RYEKZzswBMA-78">
          <mxGeometry relative="1" as="geometry" />
        </mxCell>
        <mxCell id="wjFaACwu9RYEKZzswBMA-76" value="&quot;จะเอาเพิ่มไหม? (Y/N)&quot; scanf(&quot; %c&quot;, &amp;amp;more)" style="shape=parallelogram;perimeter=parallelogramPerimeter;whiteSpace=wrap;html=1;" vertex="1" parent="1">
          <mxGeometry x="965" y="870" width="300" height="80" as="geometry" />
        </mxCell>
        <mxCell id="wjFaACwu9RYEKZzswBMA-81" value="ไม่ถูกต้อง" style="edgeStyle=orthogonalEdgeStyle;rounded=0;orthogonalLoop=1;jettySize=auto;html=1;" edge="1" parent="1" source="wjFaACwu9RYEKZzswBMA-78" target="wjFaACwu9RYEKZzswBMA-80">
          <mxGeometry relative="1" as="geometry" />
        </mxCell>
        <mxCell id="wjFaACwu9RYEKZzswBMA-90" value="ถูกต้อง" style="edgeStyle=orthogonalEdgeStyle;rounded=0;orthogonalLoop=1;jettySize=auto;html=1;" edge="1" parent="1" source="wjFaACwu9RYEKZzswBMA-78">
          <mxGeometry relative="1" as="geometry">
            <mxPoint x="680" y="1160" as="targetPoint" />
          </mxGeometry>
        </mxCell>
        <mxCell id="wjFaACwu9RYEKZzswBMA-78" value="ตัวอักษรถูกต้องหรือไม่? (Y,y,N,n)" style="rhombus;whiteSpace=wrap;html=1;" vertex="1" parent="1">
          <mxGeometry x="1005" y="1110" width="220" height="100" as="geometry" />
        </mxCell>
        <mxCell id="wjFaACwu9RYEKZzswBMA-82" style="edgeStyle=orthogonalEdgeStyle;rounded=0;orthogonalLoop=1;jettySize=auto;html=1;entryX=1;entryY=0.5;entryDx=0;entryDy=0;" edge="1" parent="1" source="wjFaACwu9RYEKZzswBMA-80" target="wjFaACwu9RYEKZzswBMA-76">
          <mxGeometry relative="1" as="geometry">
            <mxPoint x="1420" y="900.0000000000005" as="targetPoint" />
            <Array as="points">
              <mxPoint x="1320" y="1300" />
              <mxPoint x="1320" y="910" />
            </Array>
          </mxGeometry>
        </mxCell>
        <mxCell id="wjFaACwu9RYEKZzswBMA-80" value="&quot;กรุณาพิมพ์เฉพาะ Y หรือ N เท่านั้น!&quot;" style="rounded=1;whiteSpace=wrap;html=1;" vertex="1" parent="1">
          <mxGeometry x="955" y="1270" width="320" height="60" as="geometry" />
        </mxCell>
        <mxCell id="wjFaACwu9RYEKZzswBMA-86" value="" style="edgeStyle=orthogonalEdgeStyle;rounded=0;orthogonalLoop=1;jettySize=auto;html=1;" edge="1" parent="1" source="wjFaACwu9RYEKZzswBMA-68" target="wjFaACwu9RYEKZzswBMA-85">
          <mxGeometry relative="1" as="geometry">
            <mxPoint x="180" y="250" as="targetPoint" />
            <mxPoint x="585" y="985" as="sourcePoint" />
          </mxGeometry>
        </mxCell>
        <mxCell id="wjFaACwu9RYEKZzswBMA-85" value="" style="ellipse;whiteSpace=wrap;html=1;aspect=fixed;" vertex="1" parent="1">
          <mxGeometry x="170" y="975" width="20" height="20" as="geometry" />
        </mxCell>
        <mxCell id="wjFaACwu9RYEKZzswBMA-94" value="more == &#39;Y&#39; / &#39;y&#39;" style="edgeStyle=orthogonalEdgeStyle;rounded=0;orthogonalLoop=1;jettySize=auto;html=1;entryX=0.5;entryY=1;entryDx=0;entryDy=0;" edge="1" parent="1" source="wjFaACwu9RYEKZzswBMA-92" target="wjFaACwu9RYEKZzswBMA-85">
          <mxGeometry x="-0.0007" relative="1" as="geometry">
            <mxPoint as="offset" />
          </mxGeometry>
        </mxCell>
        <mxCell id="wjFaACwu9RYEKZzswBMA-96" style="edgeStyle=orthogonalEdgeStyle;rounded=0;orthogonalLoop=1;jettySize=auto;html=1;entryX=0.5;entryY=0;entryDx=0;entryDy=0;" edge="1" parent="1" source="wjFaACwu9RYEKZzswBMA-92" target="wjFaACwu9RYEKZzswBMA-99">
          <mxGeometry relative="1" as="geometry">
            <mxPoint x="585" y="1370" as="targetPoint" />
          </mxGeometry>
        </mxCell>
        <mxCell id="wjFaACwu9RYEKZzswBMA-97" value="more == &#39;N&#39; / &#39;n&#39;" style="edgeLabel;html=1;align=center;verticalAlign=middle;resizable=0;points=[];" vertex="1" connectable="0" parent="wjFaACwu9RYEKZzswBMA-96">
          <mxGeometry x="-0.2516" relative="1" as="geometry">
            <mxPoint as="offset" />
          </mxGeometry>
        </mxCell>
        <mxCell id="wjFaACwu9RYEKZzswBMA-92" value="more == &#39;Y&#39; / &#39;y&#39; หรือ &#39;N&#39; / &#39;n&#39;" style="rhombus;whiteSpace=wrap;html=1;" vertex="1" parent="1">
          <mxGeometry x="490" y="1110" width="190" height="100" as="geometry" />
        </mxCell>
        <mxCell id="wjFaACwu9RYEKZzswBMA-102" value="" style="edgeStyle=orthogonalEdgeStyle;rounded=0;orthogonalLoop=1;jettySize=auto;html=1;" edge="1" parent="1" source="wjFaACwu9RYEKZzswBMA-98" target="wjFaACwu9RYEKZzswBMA-101">
          <mxGeometry relative="1" as="geometry" />
        </mxCell>
        <mxCell id="wjFaACwu9RYEKZzswBMA-104" value="ใช่" style="edgeLabel;html=1;align=center;verticalAlign=middle;resizable=0;points=[];" vertex="1" connectable="0" parent="wjFaACwu9RYEKZzswBMA-102">
          <mxGeometry x="-0.0021" y="3" relative="1" as="geometry">
            <mxPoint x="-3" as="offset" />
          </mxGeometry>
        </mxCell>
        <mxCell id="wjFaACwu9RYEKZzswBMA-111" style="edgeStyle=orthogonalEdgeStyle;rounded=0;orthogonalLoop=1;jettySize=auto;html=1;entryX=0;entryY=0.5;entryDx=0;entryDy=0;" edge="1" parent="1" source="wjFaACwu9RYEKZzswBMA-98" target="wjFaACwu9RYEKZzswBMA-110">
          <mxGeometry relative="1" as="geometry">
            <mxPoint x="310" y="1930" as="targetPoint" />
            <Array as="points">
              <mxPoint x="250" y="1510" />
              <mxPoint x="250" y="1920" />
            </Array>
          </mxGeometry>
        </mxCell>
        <mxCell id="wjFaACwu9RYEKZzswBMA-210" value="ไม่" style="edgeLabel;html=1;align=center;verticalAlign=middle;resizable=0;points=[];" vertex="1" connectable="0" parent="wjFaACwu9RYEKZzswBMA-111">
          <mxGeometry x="-0.7686" y="-3" relative="1" as="geometry">
            <mxPoint as="offset" />
          </mxGeometry>
        </mxCell>
        <mxCell id="wjFaACwu9RYEKZzswBMA-98" value="i &amp;lt; count" style="rhombus;whiteSpace=wrap;html=1;" vertex="1" parent="1">
          <mxGeometry x="490" y="1460" width="190" height="100" as="geometry" />
        </mxCell>
        <mxCell id="wjFaACwu9RYEKZzswBMA-100" value="" style="edgeStyle=orthogonalEdgeStyle;rounded=0;orthogonalLoop=1;jettySize=auto;html=1;" edge="1" parent="1" source="wjFaACwu9RYEKZzswBMA-99" target="wjFaACwu9RYEKZzswBMA-98">
          <mxGeometry relative="1" as="geometry" />
        </mxCell>
        <mxCell id="wjFaACwu9RYEKZzswBMA-99" value="i = 1" style="rounded=1;whiteSpace=wrap;html=1;" vertex="1" parent="1">
          <mxGeometry x="500" y="1380" width="170" height="40" as="geometry" />
        </mxCell>
        <mxCell id="wjFaACwu9RYEKZzswBMA-106" value="" style="edgeStyle=orthogonalEdgeStyle;rounded=0;orthogonalLoop=1;jettySize=auto;html=1;" edge="1" parent="1" source="wjFaACwu9RYEKZzswBMA-101" target="wjFaACwu9RYEKZzswBMA-105">
          <mxGeometry relative="1" as="geometry" />
        </mxCell>
        <mxCell id="wjFaACwu9RYEKZzswBMA-101" value="&quot;%d) %s - %d บาท\n&quot;, i+1 , items[i], prices[i]" style="rounded=1;whiteSpace=wrap;html=1;" vertex="1" parent="1">
          <mxGeometry x="425" y="1650" width="320" height="60" as="geometry" />
        </mxCell>
        <mxCell id="wjFaACwu9RYEKZzswBMA-108" style="edgeStyle=orthogonalEdgeStyle;rounded=0;orthogonalLoop=1;jettySize=auto;html=1;entryX=1;entryY=0.5;entryDx=0;entryDy=0;" edge="1" parent="1" source="wjFaACwu9RYEKZzswBMA-105" target="wjFaACwu9RYEKZzswBMA-98">
          <mxGeometry relative="1" as="geometry">
            <mxPoint x="810" y="1400" as="targetPoint" />
            <Array as="points">
              <mxPoint x="820" y="1780" />
              <mxPoint x="820" y="1510" />
            </Array>
          </mxGeometry>
        </mxCell>
        <mxCell id="wjFaACwu9RYEKZzswBMA-105" value="i++" style="whiteSpace=wrap;html=1;rounded=1;" vertex="1" parent="1">
          <mxGeometry x="525" y="1750" width="120" height="60" as="geometry" />
        </mxCell>
        <mxCell id="wjFaACwu9RYEKZzswBMA-123" value="" style="edgeStyle=orthogonalEdgeStyle;rounded=0;orthogonalLoop=1;jettySize=auto;html=1;" edge="1" parent="1" source="wjFaACwu9RYEKZzswBMA-110" target="wjFaACwu9RYEKZzswBMA-122">
          <mxGeometry relative="1" as="geometry" />
        </mxCell>
        <mxCell id="wjFaACwu9RYEKZzswBMA-110" value="&quot;รวมทั้งหมด: %d บาท\n&quot;, total" style="rounded=1;whiteSpace=wrap;html=1;" vertex="1" parent="1">
          <mxGeometry x="460" y="1890" width="320" height="60" as="geometry" />
        </mxCell>
        <mxCell id="wjFaACwu9RYEKZzswBMA-116" value="" style="edgeStyle=orthogonalEdgeStyle;rounded=0;orthogonalLoop=1;jettySize=auto;html=1;" edge="1" parent="1" source="wjFaACwu9RYEKZzswBMA-113" target="wjFaACwu9RYEKZzswBMA-115">
          <mxGeometry relative="1" as="geometry" />
        </mxCell>
        <mxCell id="wjFaACwu9RYEKZzswBMA-113" value="&amp;nbsp;&quot;ต้องการจะชำระเงินเลยหรือไม่? (Y/N)&quot; scanf(&quot; %c&quot;, &amp;amp;pay)" style="shape=parallelogram;perimeter=parallelogramPerimeter;whiteSpace=wrap;html=1;" vertex="1" parent="1">
          <mxGeometry x="405" y="2060" width="430" height="80" as="geometry" />
        </mxCell>
        <mxCell id="wjFaACwu9RYEKZzswBMA-118" value="" style="edgeStyle=orthogonalEdgeStyle;rounded=0;orthogonalLoop=1;jettySize=auto;html=1;" edge="1" parent="1" source="wjFaACwu9RYEKZzswBMA-115" target="wjFaACwu9RYEKZzswBMA-117">
          <mxGeometry relative="1" as="geometry" />
        </mxCell>
        <mxCell id="wjFaACwu9RYEKZzswBMA-119" value="ไม่ถูกต้อง" style="edgeLabel;html=1;align=center;verticalAlign=middle;resizable=0;points=[];" vertex="1" connectable="0" parent="wjFaACwu9RYEKZzswBMA-118">
          <mxGeometry x="0.0343" y="-5" relative="1" as="geometry">
            <mxPoint x="5" as="offset" />
          </mxGeometry>
        </mxCell>
        <mxCell id="wjFaACwu9RYEKZzswBMA-121" value="" style="edgeStyle=orthogonalEdgeStyle;rounded=0;orthogonalLoop=1;jettySize=auto;html=1;" edge="1" parent="1" source="wjFaACwu9RYEKZzswBMA-115" target="wjFaACwu9RYEKZzswBMA-120">
          <mxGeometry relative="1" as="geometry" />
        </mxCell>
        <mxCell id="wjFaACwu9RYEKZzswBMA-115" value="ตัวอักษรถูกต้องหรือไม่? (Y,y,N,n)" style="rhombus;whiteSpace=wrap;html=1;" vertex="1" parent="1">
          <mxGeometry x="510" y="2180" width="220" height="100" as="geometry" />
        </mxCell>
        <mxCell id="wjFaACwu9RYEKZzswBMA-117" value="&amp;nbsp;&quot;กรุณาพิมพ์เฉพาะ Y หรือ N เท่านั้น!&quot;" style="rounded=1;whiteSpace=wrap;html=1;" vertex="1" parent="1">
          <mxGeometry x="460" y="2370" width="320" height="60" as="geometry" />
        </mxCell>
        <mxCell id="wjFaACwu9RYEKZzswBMA-126" value="" style="edgeStyle=orthogonalEdgeStyle;rounded=0;orthogonalLoop=1;jettySize=auto;html=1;" edge="1" parent="1" source="wjFaACwu9RYEKZzswBMA-120" target="wjFaACwu9RYEKZzswBMA-125">
          <mxGeometry relative="1" as="geometry" />
        </mxCell>
        <mxCell id="wjFaACwu9RYEKZzswBMA-128" value="pay == &#39;N&#39; / &#39;n&#39;" style="edgeLabel;html=1;align=center;verticalAlign=middle;resizable=0;points=[];" vertex="1" connectable="0" parent="wjFaACwu9RYEKZzswBMA-126">
          <mxGeometry x="-0.0419" y="1" relative="1" as="geometry">
            <mxPoint as="offset" />
          </mxGeometry>
        </mxCell>
        <mxCell id="wjFaACwu9RYEKZzswBMA-130" value="" style="edgeStyle=orthogonalEdgeStyle;rounded=0;orthogonalLoop=1;jettySize=auto;html=1;" edge="1" parent="1" source="wjFaACwu9RYEKZzswBMA-120" target="wjFaACwu9RYEKZzswBMA-129">
          <mxGeometry relative="1" as="geometry" />
        </mxCell>
        <mxCell id="wjFaACwu9RYEKZzswBMA-131" value="&lt;span style=&quot;color: rgba(0, 0, 0, 0); font-family: monospace; font-size: 0px; text-align: start; background-color: rgb(27, 29, 30);&quot;&gt;%3CmxGraphModel%3E%3Croot%3E%3CmxCell%20id%3D%220%22%2F%3E%3CmxCell%20id%3D%221%22%20parent%3D%220%22%2F%3E%3CmxCell%20id%3D%222%22%20value%3D%22pay%20%3D%3D%20&#39;N&#39;%20%2F%20&#39;n&#39;%22%20style%3D%22edgeLabel%3Bhtml%3D1%3Balign%3Dcenter%3BverticalAlign%3Dmiddle%3Bresizable%3D0%3Bpoints%3D%5B%5D%3B%22%20vertex%3D%221%22%20connectable%3D%220%22%20parent%3D%221%22%3E%3CmxGeometry%20x%3D%221050.9999999999995%22%20y%3D%222313.333333333334%22%20as%3D%22geometry%22%2F%3E%3C%2FmxCell%3E%3C%2Froot%3E%3C%2FmxGraphModel%3E&lt;/span&gt;&lt;span style=&quot;color: rgba(0, 0, 0, 0); font-family: monospace; font-size: 0px; text-align: start; background-color: rgb(27, 29, 30);&quot;&gt;%3CmxGraphModel%3E%3Croot%3E%3CmxCell%20id%3D%220%22%2F%3E%3CmxCell%20id%3D%221%22%20parent%3D%220%22%2F%3E%3CmxCell%20id%3D%222%22%20value%3D%22pay%20%3D%3D%20&#39;N&#39;%20%2F%20&#39;n&#39;%22%20style%3D%22edgeLabel%3Bhtml%3D1%3Balign%3Dcenter%3BverticalAlign%3Dmiddle%3Bresizable%3D0%3Bpoints%3D%5B%5D%3B%22%20vertex%3D%221%22%20connectable%3D%220%22%20parent%3D%221%22%3E%3CmxGeometry%20x%3D%221050.9999999999995%22%20y%3D%222313.333333333334%22%20as%3D%22geometry%22%2F%3E%3C%2FmxCell%3E%3C%2Froot%3E%3C%2FmxGraphModel%3E&lt;/span&gt;" style="edgeLabel;html=1;align=center;verticalAlign=middle;resizable=0;points=[];" vertex="1" connectable="0" parent="wjFaACwu9RYEKZzswBMA-130">
          <mxGeometry x="-0.2048" relative="1" as="geometry">
            <mxPoint as="offset" />
          </mxGeometry>
        </mxCell>
        <mxCell id="wjFaACwu9RYEKZzswBMA-132" value="pay == &#39;Y&#39; / &#39;y&#39;" style="edgeLabel;html=1;align=center;verticalAlign=middle;resizable=0;points=[];" vertex="1" connectable="0" parent="wjFaACwu9RYEKZzswBMA-130">
          <mxGeometry x="-0.3476" y="1" relative="1" as="geometry">
            <mxPoint x="21" as="offset" />
          </mxGeometry>
        </mxCell>
        <mxCell id="wjFaACwu9RYEKZzswBMA-120" value="pay == &#39;Y&#39; / &#39;y&#39; หรือ &#39;N&#39; / &#39;n&#39;" style="rhombus;whiteSpace=wrap;html=1;" vertex="1" parent="1">
          <mxGeometry x="940" y="2180" width="220" height="100" as="geometry" />
        </mxCell>
        <mxCell id="wjFaACwu9RYEKZzswBMA-124" value="" style="edgeStyle=orthogonalEdgeStyle;rounded=0;orthogonalLoop=1;jettySize=auto;html=1;" edge="1" parent="1" source="wjFaACwu9RYEKZzswBMA-122" target="wjFaACwu9RYEKZzswBMA-113">
          <mxGeometry relative="1" as="geometry" />
        </mxCell>
        <mxCell id="wjFaACwu9RYEKZzswBMA-122" value="char pay;" style="rounded=1;whiteSpace=wrap;html=1;" vertex="1" parent="1">
          <mxGeometry x="535" y="1980" width="170" height="40" as="geometry" />
        </mxCell>
        <mxCell id="wjFaACwu9RYEKZzswBMA-125" value="&quot;ทำรายการไม่สำเร็จ&quot;&amp;nbsp;&lt;div&gt;&amp;nbsp;&quot;ขอบคุณที่ใช้บริการ ตู้ตะพาบลอย&quot;&lt;/div&gt;" style="rounded=1;whiteSpace=wrap;html=1;" vertex="1" parent="1">
          <mxGeometry x="890" y="2350" width="320" height="100" as="geometry" />
        </mxCell>
        <mxCell id="wjFaACwu9RYEKZzswBMA-143" value="" style="edgeStyle=orthogonalEdgeStyle;rounded=0;orthogonalLoop=1;jettySize=auto;html=1;" edge="1" parent="1" source="wjFaACwu9RYEKZzswBMA-129" target="wjFaACwu9RYEKZzswBMA-142">
          <mxGeometry relative="1" as="geometry" />
        </mxCell>
        <mxCell id="wjFaACwu9RYEKZzswBMA-129" value="เรียกฟังก์ชัน payment(total)" style="rounded=1;whiteSpace=wrap;html=1;" vertex="1" parent="1">
          <mxGeometry x="1340" y="2195" width="300" height="70" as="geometry" />
        </mxCell>
        <mxCell id="wjFaACwu9RYEKZzswBMA-137" value="&lt;font style=&quot;font-size: 50px;&quot;&gt;Main&lt;/font&gt;" style="text;html=1;align=center;verticalAlign=middle;whiteSpace=wrap;rounded=0;" vertex="1" parent="1">
          <mxGeometry x="-200" y="-430" width="120" height="70" as="geometry" />
        </mxCell>
        <mxCell id="wjFaACwu9RYEKZzswBMA-138" value="&lt;font style=&quot;font-size: 50px;&quot;&gt;showMenu&lt;/font&gt;" style="text;html=1;align=center;verticalAlign=middle;whiteSpace=wrap;rounded=0;" vertex="1" parent="1">
          <mxGeometry x="1500" y="-430" width="300" height="70" as="geometry" />
        </mxCell>
        <mxCell id="wjFaACwu9RYEKZzswBMA-141" value="" style="edgeStyle=orthogonalEdgeStyle;rounded=0;orthogonalLoop=1;jettySize=auto;html=1;" edge="1" parent="1" source="wjFaACwu9RYEKZzswBMA-139" target="wjFaACwu9RYEKZzswBMA-140">
          <mxGeometry relative="1" as="geometry" />
        </mxCell>
        <mxCell id="wjFaACwu9RYEKZzswBMA-139" value="&lt;font data-font-src=&quot;https://fonts.googleapis.com/css?family=Sarabun&quot; face=&quot;Sarabun&quot;&gt;เริ่มต้น&lt;/font&gt;" style="ellipse;whiteSpace=wrap;html=1;" vertex="1" parent="1">
          <mxGeometry x="1585" y="-290" width="130" height="30" as="geometry" />
        </mxCell>
        <mxCell id="wjFaACwu9RYEKZzswBMA-145" value="" style="edgeStyle=orthogonalEdgeStyle;rounded=0;orthogonalLoop=1;jettySize=auto;html=1;" edge="1" parent="1" source="wjFaACwu9RYEKZzswBMA-140" target="wjFaACwu9RYEKZzswBMA-144">
          <mxGeometry relative="1" as="geometry" />
        </mxCell>
        <mxCell id="wjFaACwu9RYEKZzswBMA-140" value="&lt;div&gt;&amp;nbsp; &quot;\n=========== ตู้กดน้ำ &amp;amp; ขนม ตะพาบลอย ===========\n&quot;&lt;/div&gt;&lt;div&gt;&amp;nbsp; &amp;nbsp;&quot;\nประเภทน้ำ\n&quot;&lt;/div&gt;&lt;div&gt;&amp;nbsp; &amp;nbsp; &quot; 1) โค้ก - 10 บาท\n&quot;&lt;/div&gt;&lt;div&gt;&amp;nbsp; &amp;nbsp; &quot; 2) น้ำเขียว - 12 บาท\n&quot;&lt;/div&gt;&lt;div&gt;&amp;nbsp; &amp;nbsp; &quot; 3) อเมริกาโน่ - 30 บาท\n&quot;&lt;/div&gt;&lt;div&gt;&amp;nbsp; &amp;nbsp; &quot; 4) ลาเต้ หวานเจี๊ยบ - 35 บาท\n&quot;&lt;/div&gt;&lt;div&gt;&lt;br&gt;&lt;/div&gt;&lt;div&gt;&amp;nbsp; &amp;nbsp; &quot;\nขนม\n&quot;&lt;/div&gt;&lt;div&gt;&amp;nbsp; &amp;nbsp; &quot; 5) เมล็ดทานตะวัน - 13 บาท\n&quot;&lt;/div&gt;&lt;div&gt;&amp;nbsp; &amp;nbsp; &quot; 6) ถั่วแปบ - 20 บาท\n&quot;&lt;/div&gt;&lt;div&gt;&amp;nbsp; &amp;nbsp; &quot; 7) จิ้นส้มหมก - 15 บาท\n&quot;&lt;/div&gt;&lt;div&gt;&amp;nbsp; &amp;nbsp; &quot;===============================================\n&quot;&lt;/div&gt;" style="rounded=1;whiteSpace=wrap;html=1;align=center;" vertex="1" parent="1">
          <mxGeometry x="1250" y="-160" width="800" height="350" as="geometry" />
        </mxCell>
        <mxCell id="wjFaACwu9RYEKZzswBMA-142" value="จบ" style="ellipse;whiteSpace=wrap;html=1;" vertex="1" parent="1">
          <mxGeometry x="1430" y="2370" width="120" height="60" as="geometry" />
        </mxCell>
        <mxCell id="wjFaACwu9RYEKZzswBMA-144" value="จบ" style="ellipse;whiteSpace=wrap;html=1;" vertex="1" parent="1">
          <mxGeometry x="1590" y="310" width="120" height="60" as="geometry" />
        </mxCell>
        <mxCell id="wjFaACwu9RYEKZzswBMA-147" value="&lt;font style=&quot;&quot;&gt;&lt;span style=&quot;font-size: 50px;&quot;&gt;payment(&lt;/span&gt;&lt;font style=&quot;font-size: 50px;&quot;&gt;total&lt;/font&gt;&lt;span style=&quot;font-size: 50px;&quot;&gt;)&lt;/span&gt;&lt;/font&gt;" style="text;html=1;align=center;verticalAlign=middle;whiteSpace=wrap;rounded=0;" vertex="1" parent="1">
          <mxGeometry x="2820" y="-430" width="300" height="70" as="geometry" />
        </mxCell>
        <mxCell id="wjFaACwu9RYEKZzswBMA-155" value="" style="edgeStyle=orthogonalEdgeStyle;rounded=0;orthogonalLoop=1;jettySize=auto;html=1;" edge="1" parent="1" source="wjFaACwu9RYEKZzswBMA-148" target="wjFaACwu9RYEKZzswBMA-149">
          <mxGeometry relative="1" as="geometry" />
        </mxCell>
        <mxCell id="wjFaACwu9RYEKZzswBMA-148" value="&lt;font data-font-src=&quot;https://fonts.googleapis.com/css?family=Sarabun&quot; face=&quot;Sarabun&quot;&gt;เริ่มต้น&lt;/font&gt;" style="ellipse;whiteSpace=wrap;html=1;" vertex="1" parent="1">
          <mxGeometry x="2527.5" y="-270" width="130" height="30" as="geometry" />
        </mxCell>
        <mxCell id="wjFaACwu9RYEKZzswBMA-151" value="" style="edgeStyle=orthogonalEdgeStyle;rounded=0;orthogonalLoop=1;jettySize=auto;html=1;" edge="1" parent="1" source="wjFaACwu9RYEKZzswBMA-149" target="wjFaACwu9RYEKZzswBMA-150">
          <mxGeometry relative="1" as="geometry" />
        </mxCell>
        <mxCell id="wjFaACwu9RYEKZzswBMA-149" value="&lt;div&gt;&amp;nbsp;&amp;nbsp;&lt;br&gt;&amp;nbsp; int money, paid = 0&lt;/div&gt;&lt;div&gt;&amp;nbsp; &amp;nbsp; int change, temp&lt;/div&gt;&lt;div&gt;&lt;br&gt;&lt;/div&gt;&lt;div&gt;&amp;nbsp; &amp;nbsp; int banknotes[] = { 500, 100, 50, 20 }&lt;/div&gt;&lt;div&gt;&amp;nbsp; &amp;nbsp; int coins[] = { 10, 5, 1 }&lt;/div&gt;&lt;div&gt;&lt;br&gt;&lt;/div&gt;&lt;div&gt;&amp;nbsp; &amp;nbsp; int bankCount[4] = { 0 }&lt;/div&gt;&lt;div&gt;&amp;nbsp; &amp;nbsp; int coinCount[3] = { 0 }&lt;/div&gt;" style="rounded=1;whiteSpace=wrap;html=1;" vertex="1" parent="1">
          <mxGeometry x="2470" y="-180" width="245" height="190" as="geometry" />
        </mxCell>
        <mxCell id="wjFaACwu9RYEKZzswBMA-154" value="" style="edgeStyle=orthogonalEdgeStyle;rounded=0;orthogonalLoop=1;jettySize=auto;html=1;" edge="1" parent="1" source="wjFaACwu9RYEKZzswBMA-150" target="wjFaACwu9RYEKZzswBMA-153">
          <mxGeometry relative="1" as="geometry" />
        </mxCell>
        <mxCell id="wjFaACwu9RYEKZzswBMA-150" value="&quot;\n=== ขั้นตอนการชำระเงิน ===\n&quot;" style="rounded=1;whiteSpace=wrap;html=1;" vertex="1" parent="1">
          <mxGeometry x="2470" y="100" width="245" height="100" as="geometry" />
        </mxCell>
        <mxCell id="wjFaACwu9RYEKZzswBMA-157" style="edgeStyle=orthogonalEdgeStyle;rounded=0;orthogonalLoop=1;jettySize=auto;html=1;" edge="1" parent="1" source="wjFaACwu9RYEKZzswBMA-153" target="wjFaACwu9RYEKZzswBMA-156">
          <mxGeometry relative="1" as="geometry" />
        </mxCell>
        <mxCell id="wjFaACwu9RYEKZzswBMA-153" value="&quot;ยอดที่ต้องชำระ: %d บาท\n&quot;, total" style="rounded=1;whiteSpace=wrap;html=1;" vertex="1" parent="1">
          <mxGeometry x="2470" y="250" width="245" height="100" as="geometry" />
        </mxCell>
        <mxCell id="wjFaACwu9RYEKZzswBMA-159" value="" style="edgeStyle=orthogonalEdgeStyle;rounded=0;orthogonalLoop=1;jettySize=auto;html=1;" edge="1" parent="1" source="wjFaACwu9RYEKZzswBMA-176" target="wjFaACwu9RYEKZzswBMA-158">
          <mxGeometry relative="1" as="geometry" />
        </mxCell>
        <mxCell id="wjFaACwu9RYEKZzswBMA-156" value="paid &lt; total ?" style="rhombus;whiteSpace=wrap;html=1;" vertex="1" parent="1">
          <mxGeometry x="2502.5" y="410" width="180" height="100" as="geometry" />
        </mxCell>
        <mxCell id="wjFaACwu9RYEKZzswBMA-162" value="" style="edgeStyle=orthogonalEdgeStyle;rounded=0;orthogonalLoop=1;jettySize=auto;html=1;" edge="1" parent="1" source="wjFaACwu9RYEKZzswBMA-158" target="wjFaACwu9RYEKZzswBMA-161">
          <mxGeometry relative="1" as="geometry" />
        </mxCell>
        <mxCell id="wjFaACwu9RYEKZzswBMA-158" value="&amp;nbsp;scanf(&quot;ใส่ธนบัตรหรือเหรียญ (1,5,10,20,50,100,500): %d&quot;, &amp;amp;money)&amp;nbsp;" style="shape=parallelogram;perimeter=parallelogramPerimeter;whiteSpace=wrap;html=1;" vertex="1" parent="1">
          <mxGeometry x="3130" y="410" width="540" height="100" as="geometry" />
        </mxCell>
        <mxCell id="wjFaACwu9RYEKZzswBMA-164" value="" style="edgeStyle=orthogonalEdgeStyle;rounded=0;orthogonalLoop=1;jettySize=auto;html=1;" edge="1" parent="1" source="wjFaACwu9RYEKZzswBMA-161" target="wjFaACwu9RYEKZzswBMA-163">
          <mxGeometry relative="1" as="geometry" />
        </mxCell>
        <mxCell id="wjFaACwu9RYEKZzswBMA-166" value="ไม่ใช่" style="edgeLabel;html=1;align=center;verticalAlign=middle;resizable=0;points=[];" vertex="1" connectable="0" parent="wjFaACwu9RYEKZzswBMA-164">
          <mxGeometry x="-0.1306" y="4" relative="1" as="geometry">
            <mxPoint as="offset" />
          </mxGeometry>
        </mxCell>
        <mxCell id="wjFaACwu9RYEKZzswBMA-169" style="edgeStyle=orthogonalEdgeStyle;rounded=0;orthogonalLoop=1;jettySize=auto;html=1;entryX=1;entryY=0.5;entryDx=0;entryDy=0;" edge="1" parent="1" source="wjFaACwu9RYEKZzswBMA-161" target="wjFaACwu9RYEKZzswBMA-168">
          <mxGeometry relative="1" as="geometry" />
        </mxCell>
        <mxCell id="wjFaACwu9RYEKZzswBMA-161" value="ตรวจสอบว่าเป็นตัวเลข" style="rhombus;whiteSpace=wrap;html=1;" vertex="1" parent="1">
          <mxGeometry x="3300" y="580" width="200" height="100" as="geometry" />
        </mxCell>
        <mxCell id="wjFaACwu9RYEKZzswBMA-165" style="edgeStyle=orthogonalEdgeStyle;rounded=0;orthogonalLoop=1;jettySize=auto;html=1;entryX=1;entryY=0.5;entryDx=0;entryDy=0;" edge="1" parent="1" source="wjFaACwu9RYEKZzswBMA-163" target="wjFaACwu9RYEKZzswBMA-158">
          <mxGeometry relative="1" as="geometry">
            <mxPoint x="3750" y="460.00000000000045" as="targetPoint" />
            <Array as="points">
              <mxPoint x="3710" y="800" />
              <mxPoint x="3710" y="460" />
            </Array>
          </mxGeometry>
        </mxCell>
        <mxCell id="wjFaACwu9RYEKZzswBMA-163" value="&amp;nbsp;&quot;กรุณาใส่ตัวเลขเท่านั้น!&quot;&amp;nbsp;" style="rounded=1;whiteSpace=wrap;html=1;" vertex="1" parent="1">
          <mxGeometry x="3250" y="760" width="300" height="80" as="geometry" />
        </mxCell>
        <mxCell id="wjFaACwu9RYEKZzswBMA-171" style="edgeStyle=orthogonalEdgeStyle;rounded=0;orthogonalLoop=1;jettySize=auto;html=1;" edge="1" parent="1" source="wjFaACwu9RYEKZzswBMA-168" target="wjFaACwu9RYEKZzswBMA-170">
          <mxGeometry relative="1" as="geometry" />
        </mxCell>
        <mxCell id="wjFaACwu9RYEKZzswBMA-168" value="เงินอยู่ในชุดที่รับหรือไม่? {1,5,10,20,50,100,500}" style="rhombus;whiteSpace=wrap;html=1;" vertex="1" parent="1">
          <mxGeometry x="2870" y="575" width="300" height="110" as="geometry" />
        </mxCell>
        <mxCell id="wjFaACwu9RYEKZzswBMA-174" value="" style="edgeStyle=orthogonalEdgeStyle;rounded=0;orthogonalLoop=1;jettySize=auto;html=1;" edge="1" parent="1" source="wjFaACwu9RYEKZzswBMA-170">
          <mxGeometry relative="1" as="geometry">
            <mxPoint x="3020" y="930.0000000000005" as="targetPoint" />
          </mxGeometry>
        </mxCell>
        <mxCell id="wjFaACwu9RYEKZzswBMA-170" value="paid += money&amp;nbsp;&amp;nbsp;&lt;div&gt;&lt;br&gt;&lt;/div&gt;" style="rounded=1;whiteSpace=wrap;html=1;" vertex="1" parent="1">
          <mxGeometry x="2930" y="800" width="180" height="60" as="geometry" />
        </mxCell>
        <mxCell id="wjFaACwu9RYEKZzswBMA-179" value="" style="edgeStyle=orthogonalEdgeStyle;rounded=0;orthogonalLoop=1;jettySize=auto;html=1;" edge="1" parent="1" source="wjFaACwu9RYEKZzswBMA-175" target="wjFaACwu9RYEKZzswBMA-178">
          <mxGeometry relative="1" as="geometry" />
        </mxCell>
        <mxCell id="wjFaACwu9RYEKZzswBMA-175" value="&quot;ชำระแล้ว: %d บาท\n&quot;, paid" style="rounded=1;whiteSpace=wrap;html=1;" vertex="1" parent="1">
          <mxGeometry x="2935" y="930" width="170" height="60" as="geometry" />
        </mxCell>
        <mxCell id="wjFaACwu9RYEKZzswBMA-177" value="" style="edgeStyle=orthogonalEdgeStyle;rounded=0;orthogonalLoop=1;jettySize=auto;html=1;" edge="1" parent="1" source="wjFaACwu9RYEKZzswBMA-156" target="wjFaACwu9RYEKZzswBMA-176">
          <mxGeometry relative="1" as="geometry">
            <mxPoint x="2683" y="460" as="sourcePoint" />
            <mxPoint x="3184" y="460" as="targetPoint" />
          </mxGeometry>
        </mxCell>
        <mxCell id="wjFaACwu9RYEKZzswBMA-176" value="" style="ellipse;whiteSpace=wrap;html=1;aspect=fixed;" vertex="1" parent="1">
          <mxGeometry x="2780" y="445" width="30" height="30" as="geometry" />
        </mxCell>
        <mxCell id="wjFaACwu9RYEKZzswBMA-181" value="" style="edgeStyle=orthogonalEdgeStyle;rounded=0;orthogonalLoop=1;jettySize=auto;html=1;" edge="1" parent="1" source="wjFaACwu9RYEKZzswBMA-178" target="wjFaACwu9RYEKZzswBMA-180">
          <mxGeometry relative="1" as="geometry" />
        </mxCell>
        <mxCell id="wjFaACwu9RYEKZzswBMA-183" value="ใช่" style="edgeLabel;html=1;align=center;verticalAlign=middle;resizable=0;points=[];" vertex="1" connectable="0" parent="wjFaACwu9RYEKZzswBMA-181">
          <mxGeometry x="-0.2753" relative="1" as="geometry">
            <mxPoint as="offset" />
          </mxGeometry>
        </mxCell>
        <mxCell id="wjFaACwu9RYEKZzswBMA-186" style="edgeStyle=orthogonalEdgeStyle;rounded=0;orthogonalLoop=1;jettySize=auto;html=1;" edge="1" parent="1" source="wjFaACwu9RYEKZzswBMA-178" target="wjFaACwu9RYEKZzswBMA-185">
          <mxGeometry relative="1" as="geometry" />
        </mxCell>
        <mxCell id="wjFaACwu9RYEKZzswBMA-187" value="ไม่" style="edgeLabel;html=1;align=center;verticalAlign=middle;resizable=0;points=[];" vertex="1" connectable="0" parent="wjFaACwu9RYEKZzswBMA-186">
          <mxGeometry x="-0.105" y="2" relative="1" as="geometry">
            <mxPoint x="-1" as="offset" />
          </mxGeometry>
        </mxCell>
        <mxCell id="wjFaACwu9RYEKZzswBMA-178" value="paid &amp;lt; total" style="rhombus;whiteSpace=wrap;html=1;" vertex="1" parent="1">
          <mxGeometry x="2930" y="1050" width="180" height="100" as="geometry" />
        </mxCell>
        <mxCell id="wjFaACwu9RYEKZzswBMA-184" style="edgeStyle=orthogonalEdgeStyle;rounded=0;orthogonalLoop=1;jettySize=auto;html=1;entryX=0.5;entryY=1;entryDx=0;entryDy=0;" edge="1" parent="1" source="wjFaACwu9RYEKZzswBMA-180" target="wjFaACwu9RYEKZzswBMA-176">
          <mxGeometry relative="1" as="geometry" />
        </mxCell>
        <mxCell id="wjFaACwu9RYEKZzswBMA-180" value="&quot;ยังขาดอีก: %d บาท\n&quot;, total - paid" style="rounded=1;whiteSpace=wrap;html=1;" vertex="1" parent="1">
          <mxGeometry x="2870" y="1210" width="300" height="80" as="geometry" />
        </mxCell>
        <mxCell id="wjFaACwu9RYEKZzswBMA-189" value="" style="edgeStyle=orthogonalEdgeStyle;rounded=0;orthogonalLoop=1;jettySize=auto;html=1;" edge="1" parent="1" source="wjFaACwu9RYEKZzswBMA-185" target="wjFaACwu9RYEKZzswBMA-188">
          <mxGeometry relative="1" as="geometry" />
        </mxCell>
        <mxCell id="wjFaACwu9RYEKZzswBMA-185" value="change = paid - total" style="rounded=1;whiteSpace=wrap;html=1;" vertex="1" parent="1">
          <mxGeometry x="3310" y="1060" width="300" height="80" as="geometry" />
        </mxCell>
        <mxCell id="wjFaACwu9RYEKZzswBMA-191" value="" style="edgeStyle=orthogonalEdgeStyle;rounded=0;orthogonalLoop=1;jettySize=auto;html=1;" edge="1" parent="1" source="wjFaACwu9RYEKZzswBMA-188" target="wjFaACwu9RYEKZzswBMA-190">
          <mxGeometry relative="1" as="geometry" />
        </mxCell>
        <mxCell id="wjFaACwu9RYEKZzswBMA-188" value="&quot;ชำระเสร็จสิ้น รวมจ่าย: %d บาท\n&quot;, paid" style="rounded=1;whiteSpace=wrap;html=1;" vertex="1" parent="1">
          <mxGeometry x="3310" y="1200" width="300" height="80" as="geometry" />
        </mxCell>
        <mxCell id="wjFaACwu9RYEKZzswBMA-194" value="" style="edgeStyle=orthogonalEdgeStyle;rounded=0;orthogonalLoop=1;jettySize=auto;html=1;" edge="1" parent="1" source="wjFaACwu9RYEKZzswBMA-190" target="wjFaACwu9RYEKZzswBMA-193">
          <mxGeometry relative="1" as="geometry" />
        </mxCell>
        <mxCell id="wjFaACwu9RYEKZzswBMA-190" value="&quot;เงินทอน: %d บาท\n&quot;, change" style="rounded=1;whiteSpace=wrap;html=1;" vertex="1" parent="1">
          <mxGeometry x="3310" y="1330" width="300" height="80" as="geometry" />
        </mxCell>
        <mxCell id="wjFaACwu9RYEKZzswBMA-196" value="" style="edgeStyle=orthogonalEdgeStyle;rounded=0;orthogonalLoop=1;jettySize=auto;html=1;" edge="1" parent="1" source="wjFaACwu9RYEKZzswBMA-193" target="wjFaACwu9RYEKZzswBMA-195">
          <mxGeometry relative="1" as="geometry" />
        </mxCell>
        <mxCell id="wjFaACwu9RYEKZzswBMA-193" value="&amp;nbsp;temp = change" style="rounded=1;whiteSpace=wrap;html=1;" vertex="1" parent="1">
          <mxGeometry x="3310" y="1490" width="300" height="80" as="geometry" />
        </mxCell>
        <mxCell id="wjFaACwu9RYEKZzswBMA-201" style="edgeStyle=orthogonalEdgeStyle;rounded=0;orthogonalLoop=1;jettySize=auto;html=1;entryX=0.5;entryY=0;entryDx=0;entryDy=0;" edge="1" parent="1" source="wjFaACwu9RYEKZzswBMA-195" target="wjFaACwu9RYEKZzswBMA-199">
          <mxGeometry relative="1" as="geometry" />
        </mxCell>
        <mxCell id="wjFaACwu9RYEKZzswBMA-195" value="i = 0" style="rounded=1;whiteSpace=wrap;html=1;" vertex="1" parent="1">
          <mxGeometry x="3400" y="1660" width="120" height="60" as="geometry" />
        </mxCell>
        <mxCell id="wjFaACwu9RYEKZzswBMA-203" value="" style="edgeStyle=orthogonalEdgeStyle;rounded=0;orthogonalLoop=1;jettySize=auto;html=1;" edge="1" parent="1" source="wjFaACwu9RYEKZzswBMA-199" target="wjFaACwu9RYEKZzswBMA-202">
          <mxGeometry relative="1" as="geometry" />
        </mxCell>
        <mxCell id="wjFaACwu9RYEKZzswBMA-204" value="ใช่" style="edgeLabel;html=1;align=center;verticalAlign=middle;resizable=0;points=[];" vertex="1" connectable="0" parent="wjFaACwu9RYEKZzswBMA-203">
          <mxGeometry x="-0.6257" y="-2" relative="1" as="geometry">
            <mxPoint x="2" y="31" as="offset" />
          </mxGeometry>
        </mxCell>
        <mxCell id="wjFaACwu9RYEKZzswBMA-213" style="edgeStyle=orthogonalEdgeStyle;rounded=0;orthogonalLoop=1;jettySize=auto;html=1;entryX=0;entryY=0.5;entryDx=0;entryDy=0;" edge="1" parent="1" source="wjFaACwu9RYEKZzswBMA-199" target="wjFaACwu9RYEKZzswBMA-215">
          <mxGeometry relative="1" as="geometry">
            <mxPoint x="3270" y="2270" as="targetPoint" />
            <Array as="points">
              <mxPoint x="3220" y="1840" />
              <mxPoint x="3220" y="2330" />
            </Array>
          </mxGeometry>
        </mxCell>
        <mxCell id="wjFaACwu9RYEKZzswBMA-199" value="i &amp;lt; 4" style="rhombus;whiteSpace=wrap;html=1;" vertex="1" parent="1">
          <mxGeometry x="3370" y="1790" width="180" height="100" as="geometry" />
        </mxCell>
        <mxCell id="wjFaACwu9RYEKZzswBMA-209" value="" style="edgeStyle=orthogonalEdgeStyle;rounded=0;orthogonalLoop=1;jettySize=auto;html=1;" edge="1" parent="1" source="wjFaACwu9RYEKZzswBMA-202" target="wjFaACwu9RYEKZzswBMA-208">
          <mxGeometry relative="1" as="geometry" />
        </mxCell>
        <mxCell id="wjFaACwu9RYEKZzswBMA-202" value="&amp;nbsp;bankCount[i] = temp / banknotes[i]" style="rounded=1;whiteSpace=wrap;html=1;" vertex="1" parent="1">
          <mxGeometry x="3370" y="1990" width="180" height="60" as="geometry" />
        </mxCell>
        <mxCell id="wjFaACwu9RYEKZzswBMA-212" style="edgeStyle=orthogonalEdgeStyle;rounded=0;orthogonalLoop=1;jettySize=auto;html=1;entryX=1;entryY=0.5;entryDx=0;entryDy=0;exitX=1;exitY=0.5;exitDx=0;exitDy=0;" edge="1" parent="1" source="wjFaACwu9RYEKZzswBMA-218" target="wjFaACwu9RYEKZzswBMA-199">
          <mxGeometry relative="1" as="geometry">
            <Array as="points">
              <mxPoint x="3570" y="2200" />
              <mxPoint x="3570" y="1840" />
            </Array>
          </mxGeometry>
        </mxCell>
        <mxCell id="wjFaACwu9RYEKZzswBMA-219" value="" style="edgeStyle=orthogonalEdgeStyle;rounded=0;orthogonalLoop=1;jettySize=auto;html=1;" edge="1" parent="1" source="wjFaACwu9RYEKZzswBMA-208" target="wjFaACwu9RYEKZzswBMA-218">
          <mxGeometry relative="1" as="geometry" />
        </mxCell>
        <mxCell id="wjFaACwu9RYEKZzswBMA-208" value="temp %= banknotes[i]" style="rounded=1;whiteSpace=wrap;html=1;" vertex="1" parent="1">
          <mxGeometry x="3370" y="2090" width="180" height="60" as="geometry" />
        </mxCell>
        <mxCell id="wjFaACwu9RYEKZzswBMA-217" value="" style="edgeStyle=orthogonalEdgeStyle;rounded=0;orthogonalLoop=1;jettySize=auto;html=1;" edge="1" parent="1" source="wjFaACwu9RYEKZzswBMA-215" target="wjFaACwu9RYEKZzswBMA-216">
          <mxGeometry relative="1" as="geometry" />
        </mxCell>
        <mxCell id="wjFaACwu9RYEKZzswBMA-215" value="i = 0" style="rounded=1;whiteSpace=wrap;html=1;" vertex="1" parent="1">
          <mxGeometry x="3380" y="2300" width="120" height="60" as="geometry" />
        </mxCell>
        <mxCell id="wjFaACwu9RYEKZzswBMA-221" value="" style="edgeStyle=orthogonalEdgeStyle;rounded=0;orthogonalLoop=1;jettySize=auto;html=1;" edge="1" parent="1" source="wjFaACwu9RYEKZzswBMA-216" target="wjFaACwu9RYEKZzswBMA-220">
          <mxGeometry relative="1" as="geometry" />
        </mxCell>
        <mxCell id="wjFaACwu9RYEKZzswBMA-222" value="ใช่" style="edgeLabel;html=1;align=center;verticalAlign=middle;resizable=0;points=[];" vertex="1" connectable="0" parent="wjFaACwu9RYEKZzswBMA-221">
          <mxGeometry x="-0.0722" y="2" relative="1" as="geometry">
            <mxPoint as="offset" />
          </mxGeometry>
        </mxCell>
        <mxCell id="wjFaACwu9RYEKZzswBMA-228" style="edgeStyle=orthogonalEdgeStyle;rounded=0;orthogonalLoop=1;jettySize=auto;html=1;" edge="1" parent="1" source="wjFaACwu9RYEKZzswBMA-216">
          <mxGeometry relative="1" as="geometry">
            <mxPoint x="3280" y="2910" as="targetPoint" />
          </mxGeometry>
        </mxCell>
        <mxCell id="wjFaACwu9RYEKZzswBMA-216" value="i &amp;lt; 3" style="rhombus;whiteSpace=wrap;html=1;" vertex="1" parent="1">
          <mxGeometry x="3350" y="2420" width="180" height="100" as="geometry" />
        </mxCell>
        <mxCell id="wjFaACwu9RYEKZzswBMA-218" value="i++" style="whiteSpace=wrap;html=1;rounded=1;" vertex="1" parent="1">
          <mxGeometry x="3400" y="2170" width="120" height="60" as="geometry" />
        </mxCell>
        <mxCell id="wjFaACwu9RYEKZzswBMA-224" value="" style="edgeStyle=orthogonalEdgeStyle;rounded=0;orthogonalLoop=1;jettySize=auto;html=1;" edge="1" parent="1" source="wjFaACwu9RYEKZzswBMA-220" target="wjFaACwu9RYEKZzswBMA-223">
          <mxGeometry relative="1" as="geometry" />
        </mxCell>
        <mxCell id="wjFaACwu9RYEKZzswBMA-220" value="coinCount[i] = temp / coins[i]" style="rounded=1;whiteSpace=wrap;html=1;" vertex="1" parent="1">
          <mxGeometry x="3370" y="2620" width="140" height="60" as="geometry" />
        </mxCell>
        <mxCell id="wjFaACwu9RYEKZzswBMA-226" value="" style="edgeStyle=orthogonalEdgeStyle;rounded=0;orthogonalLoop=1;jettySize=auto;html=1;" edge="1" parent="1" source="wjFaACwu9RYEKZzswBMA-223" target="wjFaACwu9RYEKZzswBMA-225">
          <mxGeometry relative="1" as="geometry" />
        </mxCell>
        <mxCell id="wjFaACwu9RYEKZzswBMA-223" value="temp %= coins[i]" style="rounded=1;whiteSpace=wrap;html=1;" vertex="1" parent="1">
          <mxGeometry x="3370" y="2740" width="140" height="60" as="geometry" />
        </mxCell>
        <mxCell id="wjFaACwu9RYEKZzswBMA-227" style="edgeStyle=orthogonalEdgeStyle;rounded=0;orthogonalLoop=1;jettySize=auto;html=1;entryX=1;entryY=0.5;entryDx=0;entryDy=0;" edge="1" parent="1" source="wjFaACwu9RYEKZzswBMA-225" target="wjFaACwu9RYEKZzswBMA-216">
          <mxGeometry relative="1" as="geometry">
            <Array as="points">
              <mxPoint x="3550" y="2870" />
              <mxPoint x="3550" y="2470" />
            </Array>
          </mxGeometry>
        </mxCell>
        <mxCell id="wjFaACwu9RYEKZzswBMA-225" value="i++" style="whiteSpace=wrap;html=1;rounded=1;" vertex="1" parent="1">
          <mxGeometry x="3380" y="2840" width="120" height="60" as="geometry" />
        </mxCell>
        <mxCell id="wjFaACwu9RYEKZzswBMA-231" style="edgeStyle=orthogonalEdgeStyle;rounded=0;orthogonalLoop=1;jettySize=auto;html=1;" edge="1" parent="1" source="wjFaACwu9RYEKZzswBMA-229" target="wjFaACwu9RYEKZzswBMA-230">
          <mxGeometry relative="1" as="geometry" />
        </mxCell>
        <mxCell id="wjFaACwu9RYEKZzswBMA-234" value="ใช่" style="edgeLabel;html=1;align=center;verticalAlign=middle;resizable=0;points=[];" vertex="1" connectable="0" parent="wjFaACwu9RYEKZzswBMA-231">
          <mxGeometry x="-0.3278" y="-1" relative="1" as="geometry">
            <mxPoint as="offset" />
          </mxGeometry>
        </mxCell>
        <mxCell id="wjFaACwu9RYEKZzswBMA-235" style="edgeStyle=orthogonalEdgeStyle;rounded=0;orthogonalLoop=1;jettySize=auto;html=1;" edge="1" parent="1" source="wjFaACwu9RYEKZzswBMA-280" target="wjFaACwu9RYEKZzswBMA-236">
          <mxGeometry relative="1" as="geometry">
            <mxPoint x="3960" y="2960" as="targetPoint" />
          </mxGeometry>
        </mxCell>
        <mxCell id="wjFaACwu9RYEKZzswBMA-229" value="change &amp;gt; 0" style="rhombus;whiteSpace=wrap;html=1;" vertex="1" parent="1">
          <mxGeometry x="3190" y="2910" width="180" height="100" as="geometry" />
        </mxCell>
        <mxCell id="wjFaACwu9RYEKZzswBMA-233" value="" style="edgeStyle=orthogonalEdgeStyle;rounded=0;orthogonalLoop=1;jettySize=auto;html=1;" edge="1" parent="1" source="wjFaACwu9RYEKZzswBMA-230" target="wjFaACwu9RYEKZzswBMA-232">
          <mxGeometry relative="1" as="geometry" />
        </mxCell>
        <mxCell id="wjFaACwu9RYEKZzswBMA-230" value="&quot;ทอนเป็น:\n&quot;" style="whiteSpace=wrap;html=1;rounded=1;" vertex="1" parent="1">
          <mxGeometry x="3220" y="3080" width="120" height="60" as="geometry" />
        </mxCell>
        <mxCell id="wjFaACwu9RYEKZzswBMA-245" value="" style="edgeStyle=orthogonalEdgeStyle;rounded=0;orthogonalLoop=1;jettySize=auto;html=1;" edge="1" parent="1" source="wjFaACwu9RYEKZzswBMA-232" target="wjFaACwu9RYEKZzswBMA-244">
          <mxGeometry relative="1" as="geometry" />
        </mxCell>
        <mxCell id="wjFaACwu9RYEKZzswBMA-232" value="i = 0" style="whiteSpace=wrap;html=1;rounded=1;" vertex="1" parent="1">
          <mxGeometry x="3420" y="3080" width="120" height="60" as="geometry" />
        </mxCell>
        <mxCell id="wjFaACwu9RYEKZzswBMA-239" value="" style="edgeStyle=orthogonalEdgeStyle;rounded=0;orthogonalLoop=1;jettySize=auto;html=1;" edge="1" parent="1" source="wjFaACwu9RYEKZzswBMA-236" target="wjFaACwu9RYEKZzswBMA-238">
          <mxGeometry relative="1" as="geometry" />
        </mxCell>
        <mxCell id="wjFaACwu9RYEKZzswBMA-236" value="&quot;===============================================\n&quot;" style="rounded=1;whiteSpace=wrap;html=1;" vertex="1" parent="1">
          <mxGeometry x="2570" y="4750" width="410" height="60" as="geometry" />
        </mxCell>
        <mxCell id="wjFaACwu9RYEKZzswBMA-243" value="" style="edgeStyle=orthogonalEdgeStyle;rounded=0;orthogonalLoop=1;jettySize=auto;html=1;" edge="1" parent="1" source="wjFaACwu9RYEKZzswBMA-238" target="wjFaACwu9RYEKZzswBMA-242">
          <mxGeometry relative="1" as="geometry" />
        </mxCell>
        <mxCell id="wjFaACwu9RYEKZzswBMA-238" value="&quot;ขอบคุณที่ใช้บริการ ตู้ตะพาบลอย\n&quot;" style="rounded=1;whiteSpace=wrap;html=1;" vertex="1" parent="1">
          <mxGeometry x="2570" y="4860" width="410" height="60" as="geometry" />
        </mxCell>
        <mxCell id="wjFaACwu9RYEKZzswBMA-242" value="จบ" style="ellipse;whiteSpace=wrap;html=1;" vertex="1" parent="1">
          <mxGeometry x="2715" y="5020" width="120" height="60" as="geometry" />
        </mxCell>
        <mxCell id="wjFaACwu9RYEKZzswBMA-247" value="" style="edgeStyle=orthogonalEdgeStyle;rounded=0;orthogonalLoop=1;jettySize=auto;html=1;" edge="1" parent="1" source="wjFaACwu9RYEKZzswBMA-244" target="wjFaACwu9RYEKZzswBMA-246">
          <mxGeometry relative="1" as="geometry" />
        </mxCell>
        <mxCell id="wjFaACwu9RYEKZzswBMA-262" value="ใช่" style="edgeLabel;html=1;align=center;verticalAlign=middle;resizable=0;points=[];" vertex="1" connectable="0" parent="wjFaACwu9RYEKZzswBMA-247">
          <mxGeometry x="-0.469" y="-1" relative="1" as="geometry">
            <mxPoint as="offset" />
          </mxGeometry>
        </mxCell>
        <mxCell id="wjFaACwu9RYEKZzswBMA-257" style="edgeStyle=orthogonalEdgeStyle;rounded=0;orthogonalLoop=1;jettySize=auto;html=1;entryX=0.5;entryY=0;entryDx=0;entryDy=0;" edge="1" parent="1" source="wjFaACwu9RYEKZzswBMA-244" target="wjFaACwu9RYEKZzswBMA-264">
          <mxGeometry relative="1" as="geometry">
            <mxPoint x="3290" y="3860" as="targetPoint" />
          </mxGeometry>
        </mxCell>
        <mxCell id="wjFaACwu9RYEKZzswBMA-261" value="ไม่" style="edgeLabel;html=1;align=center;verticalAlign=middle;resizable=0;points=[];" vertex="1" connectable="0" parent="wjFaACwu9RYEKZzswBMA-257">
          <mxGeometry x="-0.8725" y="-1" relative="1" as="geometry">
            <mxPoint as="offset" />
          </mxGeometry>
        </mxCell>
        <mxCell id="wjFaACwu9RYEKZzswBMA-244" value="i &amp;lt; 4" style="rhombus;whiteSpace=wrap;html=1;" vertex="1" parent="1">
          <mxGeometry x="3390" y="3200" width="180" height="100" as="geometry" />
        </mxCell>
        <mxCell id="wjFaACwu9RYEKZzswBMA-251" value="" style="edgeStyle=orthogonalEdgeStyle;rounded=0;orthogonalLoop=1;jettySize=auto;html=1;" edge="1" parent="1" source="wjFaACwu9RYEKZzswBMA-246" target="wjFaACwu9RYEKZzswBMA-250">
          <mxGeometry relative="1" as="geometry" />
        </mxCell>
        <mxCell id="wjFaACwu9RYEKZzswBMA-252" value="ใช่" style="edgeLabel;html=1;align=center;verticalAlign=middle;resizable=0;points=[];" vertex="1" connectable="0" parent="wjFaACwu9RYEKZzswBMA-251">
          <mxGeometry x="-0.3467" y="-2" relative="1" as="geometry">
            <mxPoint as="offset" />
          </mxGeometry>
        </mxCell>
        <mxCell id="wjFaACwu9RYEKZzswBMA-253" style="edgeStyle=orthogonalEdgeStyle;rounded=0;orthogonalLoop=1;jettySize=auto;html=1;" edge="1" parent="1" source="wjFaACwu9RYEKZzswBMA-246">
          <mxGeometry relative="1" as="geometry">
            <mxPoint x="3630" y="3660" as="targetPoint" />
          </mxGeometry>
        </mxCell>
        <mxCell id="wjFaACwu9RYEKZzswBMA-256" value="ไม่" style="edgeLabel;html=1;align=center;verticalAlign=middle;resizable=0;points=[];" vertex="1" connectable="0" parent="wjFaACwu9RYEKZzswBMA-253">
          <mxGeometry x="0.0845" y="4" relative="1" as="geometry">
            <mxPoint as="offset" />
          </mxGeometry>
        </mxCell>
        <mxCell id="wjFaACwu9RYEKZzswBMA-246" value="bankCount[i] &amp;gt; 0" style="rhombus;whiteSpace=wrap;html=1;" vertex="1" parent="1">
          <mxGeometry x="3390" y="3340" width="180" height="100" as="geometry" />
        </mxCell>
        <mxCell id="wjFaACwu9RYEKZzswBMA-263" style="edgeStyle=orthogonalEdgeStyle;rounded=0;orthogonalLoop=1;jettySize=auto;html=1;entryX=0;entryY=0.5;entryDx=0;entryDy=0;" edge="1" parent="1" source="wjFaACwu9RYEKZzswBMA-250" target="wjFaACwu9RYEKZzswBMA-254">
          <mxGeometry relative="1" as="geometry" />
        </mxCell>
        <mxCell id="wjFaACwu9RYEKZzswBMA-250" value="&quot; ธนบัตร %d บาท x %d ใบ\n&quot;, banknotes[i], bankCount[i]" style="rounded=1;whiteSpace=wrap;html=1;" vertex="1" parent="1">
          <mxGeometry x="3380" y="3490" width="200" height="60" as="geometry" />
        </mxCell>
        <mxCell id="wjFaACwu9RYEKZzswBMA-255" style="edgeStyle=orthogonalEdgeStyle;rounded=0;orthogonalLoop=1;jettySize=auto;html=1;entryX=1;entryY=0.5;entryDx=0;entryDy=0;" edge="1" parent="1" source="wjFaACwu9RYEKZzswBMA-254" target="wjFaACwu9RYEKZzswBMA-244">
          <mxGeometry relative="1" as="geometry">
            <Array as="points">
              <mxPoint x="3810" y="3690" />
              <mxPoint x="3810" y="3250" />
            </Array>
          </mxGeometry>
        </mxCell>
        <mxCell id="wjFaACwu9RYEKZzswBMA-254" value="i++" style="rounded=1;whiteSpace=wrap;html=1;" vertex="1" parent="1">
          <mxGeometry x="3530" y="3660" width="200" height="60" as="geometry" />
        </mxCell>
        <mxCell id="wjFaACwu9RYEKZzswBMA-269" value="" style="edgeStyle=orthogonalEdgeStyle;rounded=0;orthogonalLoop=1;jettySize=auto;html=1;" edge="1" parent="1" source="wjFaACwu9RYEKZzswBMA-264" target="wjFaACwu9RYEKZzswBMA-265">
          <mxGeometry relative="1" as="geometry" />
        </mxCell>
        <mxCell id="wjFaACwu9RYEKZzswBMA-283" style="edgeStyle=orthogonalEdgeStyle;rounded=0;orthogonalLoop=1;jettySize=auto;html=1;entryX=1;entryY=0.5;entryDx=0;entryDy=0;" edge="1" parent="1" source="wjFaACwu9RYEKZzswBMA-264" target="wjFaACwu9RYEKZzswBMA-280">
          <mxGeometry relative="1" as="geometry" />
        </mxCell>
        <mxCell id="wjFaACwu9RYEKZzswBMA-264" value="i = 0" style="whiteSpace=wrap;html=1;rounded=1;" vertex="1" parent="1">
          <mxGeometry x="3230" y="3890" width="120" height="60" as="geometry" />
        </mxCell>
        <mxCell id="wjFaACwu9RYEKZzswBMA-270" value="" style="edgeStyle=orthogonalEdgeStyle;rounded=0;orthogonalLoop=1;jettySize=auto;html=1;" edge="1" parent="1" source="wjFaACwu9RYEKZzswBMA-265" target="wjFaACwu9RYEKZzswBMA-266">
          <mxGeometry relative="1" as="geometry" />
        </mxCell>
        <mxCell id="wjFaACwu9RYEKZzswBMA-277" value="ใช่" style="edgeLabel;html=1;align=center;verticalAlign=middle;resizable=0;points=[];" vertex="1" connectable="0" parent="wjFaACwu9RYEKZzswBMA-270">
          <mxGeometry x="-0.15" y="1" relative="1" as="geometry">
            <mxPoint as="offset" />
          </mxGeometry>
        </mxCell>
        <mxCell id="wjFaACwu9RYEKZzswBMA-265" value="i &amp;lt; 3" style="rhombus;whiteSpace=wrap;html=1;" vertex="1" parent="1">
          <mxGeometry x="3200" y="4010" width="180" height="100" as="geometry" />
        </mxCell>
        <mxCell id="wjFaACwu9RYEKZzswBMA-271" value="" style="edgeStyle=orthogonalEdgeStyle;rounded=0;orthogonalLoop=1;jettySize=auto;html=1;" edge="1" parent="1" source="wjFaACwu9RYEKZzswBMA-266" target="wjFaACwu9RYEKZzswBMA-267">
          <mxGeometry relative="1" as="geometry" />
        </mxCell>
        <mxCell id="wjFaACwu9RYEKZzswBMA-278" value="ใช่" style="edgeLabel;html=1;align=center;verticalAlign=middle;resizable=0;points=[];" vertex="1" connectable="0" parent="wjFaACwu9RYEKZzswBMA-271">
          <mxGeometry x="-0.04" y="-2" relative="1" as="geometry">
            <mxPoint as="offset" />
          </mxGeometry>
        </mxCell>
        <mxCell id="wjFaACwu9RYEKZzswBMA-266" value="coinCount[i] &amp;gt; 0" style="rhombus;whiteSpace=wrap;html=1;" vertex="1" parent="1">
          <mxGeometry x="3200" y="4150" width="180" height="100" as="geometry" />
        </mxCell>
        <mxCell id="wjFaACwu9RYEKZzswBMA-272" style="edgeStyle=orthogonalEdgeStyle;rounded=0;orthogonalLoop=1;jettySize=auto;html=1;entryX=0;entryY=0.5;entryDx=0;entryDy=0;" edge="1" parent="1" source="wjFaACwu9RYEKZzswBMA-267" target="wjFaACwu9RYEKZzswBMA-268">
          <mxGeometry relative="1" as="geometry" />
        </mxCell>
        <mxCell id="wjFaACwu9RYEKZzswBMA-267" value="&quot; เหรียญ %d บาท x %d เหรียญ\n&quot;, coins[i], coinCount[i]" style="rounded=1;whiteSpace=wrap;html=1;" vertex="1" parent="1">
          <mxGeometry x="3190" y="4300" width="200" height="60" as="geometry" />
        </mxCell>
        <mxCell id="wjFaACwu9RYEKZzswBMA-274" style="edgeStyle=orthogonalEdgeStyle;rounded=0;orthogonalLoop=1;jettySize=auto;html=1;entryX=1;entryY=0.5;entryDx=0;entryDy=0;" edge="1" parent="1" source="wjFaACwu9RYEKZzswBMA-268" target="wjFaACwu9RYEKZzswBMA-264">
          <mxGeometry relative="1" as="geometry" />
        </mxCell>
        <mxCell id="wjFaACwu9RYEKZzswBMA-268" value="i++" style="rounded=1;whiteSpace=wrap;html=1;" vertex="1" parent="1">
          <mxGeometry x="3340" y="4470" width="200" height="60" as="geometry" />
        </mxCell>
        <mxCell id="wjFaACwu9RYEKZzswBMA-281" value="" style="edgeStyle=orthogonalEdgeStyle;rounded=0;orthogonalLoop=1;jettySize=auto;html=1;" edge="1" parent="1" source="wjFaACwu9RYEKZzswBMA-229" target="wjFaACwu9RYEKZzswBMA-280">
          <mxGeometry relative="1" as="geometry">
            <mxPoint x="2775" y="4750" as="targetPoint" />
            <mxPoint x="3190" y="2960" as="sourcePoint" />
          </mxGeometry>
        </mxCell>
        <mxCell id="wjFaACwu9RYEKZzswBMA-282" value="ไม่" style="edgeLabel;html=1;align=center;verticalAlign=middle;resizable=0;points=[];" vertex="1" connectable="0" parent="wjFaACwu9RYEKZzswBMA-281">
          <mxGeometry x="-0.5132" y="2" relative="1" as="geometry">
            <mxPoint x="160" y="-2" as="offset" />
          </mxGeometry>
        </mxCell>
        <mxCell id="wjFaACwu9RYEKZzswBMA-280" value="" style="ellipse;whiteSpace=wrap;html=1;aspect=fixed;" vertex="1" parent="1">
          <mxGeometry x="2755" y="3900" width="40" height="40" as="geometry" />
        </mxCell>
      </root>
    </mxGraphModel>
  </diagram>
  <diagram id="payment" name="Payment">
    <mxGraphModel dx="1600" dy="1200" grid="1" gridSize="10" guides="1" tooltips="1" connect="1" arrows="1" fold="1" page="1" pageScale="1" pageWidth="1600" pageHeight="1200" math="0" shadow="0">
      <root>
        <mxCell id="100" />
        <mxCell id="101" parent="100" />
        <mxCell id="103" value="เริ่ม payment(total)" style="ellipse;whiteSpace=wrap;html=1;" vertex="1" parent="101">
          <mxGeometry x="60" y="20" width="170" height="60" as="geometry" />
        </mxCell>
        <mxCell id="104" value="กำหนด: paid=0, change=0, temp=0 banknotes={500,100,50,20} coins={10,5,1} bankCount[4]={0}, coinCount[3]={0}" style="rounded=1;whiteSpace=wrap;html=1;" vertex="1" parent="101">
          <mxGeometry x="20" y="100" width="360" height="120" as="geometry" />
        </mxCell>
        <mxCell id="105" value="paid &lt; total ?" style="rhombus;whiteSpace=wrap;html=1;" vertex="1" parent="101">
          <mxGeometry x="90" y="240" width="150" height="100" as="geometry" />
        </mxCell>
        <mxCell id="106" value="ป้อนเงิน: 1,5,10,20,50,100,500 scanf(&quot;%d&quot;, &amp;money)" style="shape=parallelogram;perimeter=parallelogramPerimeter;whiteSpace=wrap;html=1;" vertex="1" parent="101">
          <mxGeometry x="320" y="220" width="320" height="80" as="geometry" />
        </mxCell>
        <mxCell id="107" value="อ่านตัวเลขสำเร็จหรือไม่?" style="rhombus;whiteSpace=wrap;html=1;" vertex="1" parent="101">
          <mxGeometry x="380" y="310" width="200" height="100" as="geometry" />
        </mxCell>
        <mxCell id="108" value="พิมพ์: &quot;กรุณาใส่ตัวเลขเท่านั้น&quot; clearInputBuffer()" style="rounded=1;whiteSpace=wrap;html=1;" vertex="1" parent="101">
          <mxGeometry x="330" y="430" width="300" height="70" as="geometry" />
        </mxCell>
        <mxCell id="109" value="เงินอยู่ในชุดที่ยอมรับหรือไม่? {1,5,10,20,50,100,500}" style="rhombus;whiteSpace=wrap;html=1;" vertex="1" parent="101">
          <mxGeometry x="660" y="310" width="290" height="110" as="geometry" />
        </mxCell>
        <mxCell id="110" value="พิมพ์: &quot;ไม่รับธนบัตร/เหรียญนี้&quot;" style="rounded=1;whiteSpace=wrap;html=1;" vertex="1" parent="101">
          <mxGeometry x="650" y="440" width="300" height="60" as="geometry" />
        </mxCell>
        <mxCell id="111" value="paid += money พิมพ์: &quot;ชำระแล้ว: paid&quot; ถ้า paid &lt; total: พิมพ์ &quot;ยังขาดอีก: total - paid&quot;" style="rounded=1;whiteSpace=wrap;html=1;" vertex="1" parent="101">
          <mxGeometry x="990" y="220" width="350" height="100" as="geometry" />
        </mxCell>
        <mxCell id="112" value="paid &lt; total ?" style="rhombus;whiteSpace=wrap;html=1;" vertex="1" parent="101">
          <mxGeometry x="1080" y="340" width="170" height="100" as="geometry" />
        </mxCell>
        <mxCell id="113" value="change = paid - total พิมพ์: รวมจ่าย paid, เงินทอน change" style="rounded=1;whiteSpace=wrap;html=1;" vertex="1" parent="101">
          <mxGeometry x="450" y="600" width="360" height="80" as="geometry" />
        </mxCell>
        <mxCell id="114" value="คำนวณทอนธนบัตร: ลูป i=0..3: bankCount[i] = temp / banknotes[i]; temp %= banknotes[i]" style="rounded=1;whiteSpace=wrap;html=1;" vertex="1" parent="101">
          <mxGeometry x="40" y="700" width="420" height="90" as="geometry" />
        </mxCell>
        <mxCell id="115" value="คำนวณทอนเหรียญ: ลูป i=0..2: coinCount[i] = temp / coins[i]; temp %= coins[i]" style="rounded=1;whiteSpace=wrap;html=1;" vertex="1" parent="101">
          <mxGeometry x="520" y="700" width="420" height="90" as="geometry" />
        </mxCell>
        <mxCell id="116" value="change &gt; 0 ?" style="rhombus;whiteSpace=wrap;html=1;" vertex="1" parent="101">
          <mxGeometry x="960" y="700" width="150" height="100" as="geometry" />
        </mxCell>
        <mxCell id="117" value="พิมพ์รายการทอน: ธนบัตรที่จำนวน&gt;0 เหรียญที่จำนวน&gt;0" style="rounded=1;whiteSpace=wrap;html=1;" vertex="1" parent="101">
          <mxGeometry x="1140" y="690" width="260" height="110" as="geometry" />
        </mxCell>
        <mxCell id="118" value="พิมพ์: &quot;ขอบคุณที่ใช้บริการ ตู้ตะพาบลอย&quot;" style="rounded=1;whiteSpace=wrap;html=1;" vertex="1" parent="101">
          <mxGeometry x="680" y="830" width="360" height="60" as="geometry" />
        </mxCell>
        <mxCell id="119" value="จบ payment" style="ellipse;whiteSpace=wrap;html=1;" vertex="1" parent="101">
          <mxGeometry x="770" y="910" width="140" height="60" as="geometry" />
        </mxCell>
        <mxCell id="120" value="" edge="1" parent="101" source="103" target="104">
          <mxGeometry relative="1" as="geometry" />
        </mxCell>
        <mxCell id="121" value="" edge="1" parent="101" source="104" target="105">
          <mxGeometry relative="1" as="geometry" />
        </mxCell>
        <mxCell id="122" value="ใช่" edge="1" parent="101" source="105" target="106">
          <mxGeometry relative="1" as="geometry" />
        </mxCell>
        <mxCell id="123" value="ไม่ใช่" edge="1" parent="101" source="105" target="113">
          <mxGeometry relative="1" as="geometry" />
        </mxCell>
        <mxCell id="124" value="" edge="1" parent="101" source="106" target="107">
          <mxGeometry relative="1" as="geometry" />
        </mxCell>
        <mxCell id="125" value="ใช่" edge="1" parent="101" source="107" target="109">
          <mxGeometry relative="1" as="geometry" />
        </mxCell>
        <mxCell id="126" value="ไม่ใช่" edge="1" parent="101" source="107" target="108">
          <mxGeometry relative="1" as="geometry" />
        </mxCell>
        <mxCell id="127" value="" edge="1" parent="101" source="108" target="106">
          <mxGeometry relative="1" as="geometry" />
        </mxCell>
        <mxCell id="128" value="ใช่" edge="1" parent="101" source="109" target="111">
          <mxGeometry relative="1" as="geometry" />
        </mxCell>
        <mxCell id="129" value="ไม่ใช่" edge="1" parent="101" source="109" target="110">
          <mxGeometry relative="1" as="geometry" />
        </mxCell>
        <mxCell id="130" value="" edge="1" parent="101" source="110" target="106">
          <mxGeometry relative="1" as="geometry" />
        </mxCell>
        <mxCell id="131" value="" edge="1" parent="101" source="111" target="112">
          <mxGeometry relative="1" as="geometry" />
        </mxCell>
        <mxCell id="132" value="ใช่" edge="1" parent="101" source="112" target="106">
          <mxGeometry relative="1" as="geometry" />
        </mxCell>
        <mxCell id="133" value="ไม่ใช่" edge="1" parent="101" source="112" target="113">
          <mxGeometry relative="1" as="geometry" />
        </mxCell>
        <mxCell id="134" value="" edge="1" parent="101" source="113" target="114">
          <mxGeometry relative="1" as="geometry" />
        </mxCell>
        <mxCell id="135" value="" edge="1" parent="101" source="113" target="115">
          <mxGeometry relative="1" as="geometry" />
        </mxCell>
        <mxCell id="136" value="" edge="1" parent="101" source="115" target="116">
          <mxGeometry relative="1" as="geometry" />
        </mxCell>
        <mxCell id="137" value="ใช่" edge="1" parent="101" source="116" target="117">
          <mxGeometry relative="1" as="geometry" />
        </mxCell>
        <mxCell id="138" value="ไม่ใช่" edge="1" parent="101" source="116" target="118">
          <mxGeometry relative="1" as="geometry" />
        </mxCell>
        <mxCell id="139" value="" edge="1" parent="101" source="117" target="118">
          <mxGeometry relative="1" as="geometry" />
        </mxCell>
        <mxCell id="140" value="" edge="1" parent="101" source="118" target="119">
          <mxGeometry relative="1" as="geometry" />
        </mxCell>
      </root>
    </mxGraphModel>
  </diagram>
  <diagram id="showmenu" name="ShowMenu">
    <mxGraphModel dx="1200" dy="800" grid="1" gridSize="10" guides="1" tooltips="1" connect="1" arrows="1" fold="1" page="1" pageScale="1" pageWidth="1200" pageHeight="800" math="0" shadow="0">
      <root>
        <mxCell id="200" />
        <mxCell id="201" parent="200" />
        <mxCell id="203" value="เริ่ม showMenu()" style="ellipse;whiteSpace=wrap;html=1;" vertex="1" parent="201">
          <mxGeometry x="80" y="40" width="180" height="60" as="geometry" />
        </mxCell>
        <mxCell id="204" value="พิมพ์หัวข้อ: ตู้กดน้ำ &amp; ขนม ตะพาบลอย" style="rounded=1;whiteSpace=wrap;html=1;" vertex="1" parent="201">
          <mxGeometry x="40" y="120" width="320" height="60" as="geometry" />
        </mxCell>
        <mxCell id="205" value="พิมพ์หมวด ประเภทน้ำ: 1) โค้ก - 10, 2) น้ำเขียว - 12, 3) อเมริกาโน่ - 30, 4) ลาเต้ หวานเจี๊ยบ - 35" style="rounded=1;whiteSpace=wrap;html=1;" vertex="1" parent="201">
          <mxGeometry x="40" y="200" width="460" height="80" as="geometry" />
        </mxCell>
        <mxCell id="206" value="พิมพ์หมวด ขนม: 5) เมล็ดทานตะวัน - 13, 6) ถั่วแปบ - 20, 7) จิ้นส้มหมก - 15" style="rounded=1;whiteSpace=wrap;html=1;" vertex="1" parent="201">
          <mxGeometry x="40" y="300" width="420" height="80" as="geometry" />
        </mxCell>
        <mxCell id="207" value="จบ showMenu()" style="ellipse;whiteSpace=wrap;html=1;" vertex="1" parent="201">
          <mxGeometry x="80" y="400" width="180" height="60" as="geometry" />
        </mxCell>
        <mxCell id="208" value="" edge="1" parent="201" source="203" target="204">
          <mxGeometry relative="1" as="geometry" />
        </mxCell>
        <mxCell id="209" value="" edge="1" parent="201" source="204" target="205">
          <mxGeometry relative="1" as="geometry" />
        </mxCell>
        <mxCell id="210" value="" edge="1" parent="201" source="205" target="206">
          <mxGeometry relative="1" as="geometry" />
        </mxCell>
        <mxCell id="211" value="" edge="1" parent="201" source="206" target="207">
          <mxGeometry relative="1" as="geometry" />
        </mxCell>
      </root>
    </mxGraphModel>
  </diagram>
</mxfile>
